<?xml version="1.0" encoding="utf-8"?>
<!-- Generator: Adobe Illustrator 26.5.0, SVG Export Plug-In . SVG Version: 6.00 Build 0)  -->
<svg version="1.1" id="Layer_1" xmlns="http://www.w3.org/2000/svg" xmlns:xlink="http://www.w3.org/1999/xlink" x="0px" y="0px"
	 viewBox="0 0 512 512" style="enable-background:new 0 0 512 512;" xml:space="preserve">
<style type="text/css">
	.st0{fill:#ED1C24;}
	.st1{fill:#F25746;}
	.st2{fill:#BA151B;}
</style>
<g id="XMLID_1_">
	<path id="XMLID_11_" class="st0" d="M0.05,346.19h24.26v26.08h23v-26.08h24.26v76.99H47.31v-29.73h-23v29.73H0.05V346.19z
		 M106.07,346.19h24.54l26.5,76.99h-24.12l-2.94-10.24h-23.98l-2.8,10.24H79.71L106.07,346.19L106.07,346.19z M110.56,396.82h15.29
		l-7.85-27.49L110.56,396.82z M152.63,346.19h24.54l13.04,51.05l13.46-51.05h24.26l-25.66,76.99h-24.4L152.63,346.19z
		 M237.89,346.19h60.3v17.95h-36.04v11.08h30.29v17.95h-30.29v12.06h37.44v17.95h-61.7V346.19L237.89,346.19z M312.07,346.19h24.26
		v59.04h33.24v17.95h-57.5V346.19L312.07,346.19z M380.51,346.19h24.26v59.04H438v17.95h-57.5V346.19z M486.94,368.49
		c-0.56-4.35-3.93-6.59-9.96-6.59c-4.77,0-7.29,1.4-7.43,4.21c0,1.68,0.7,3.09,2.38,4.21c1.68,1.12,3.93,2.1,6.73,2.8
		c2.8,0.7,5.47,1.4,8.13,2.1c8.69,2.1,15.01,5.05,19.21,8.69c4.07,3.65,6.17,8.69,6.03,15.01c0,6.31-1.54,11.36-4.77,15.29
		c-3.23,3.93-7.43,6.73-12.62,8.41c-5.19,1.68-10.8,2.52-16.83,2.52c-8.97,0-16.69-2.38-22.86-7.15
		c-6.31-4.77-9.54-11.08-9.96-18.65h23.28c0.56,3.09,1.96,5.19,4.21,6.45s4.63,1.82,7.15,1.82c5.89-0.28,9.12-1.96,9.4-5.19
		c0.28-2.24-0.84-3.93-3.23-5.05c-2.38-1.12-6.17-2.38-11.22-3.65c-6.31-1.68-11.36-3.37-15.15-5.05c-3.79-1.68-6.87-4.21-9.26-7.57
		s-3.65-7.85-3.51-13.32c0.14-6.87,3.09-12.48,8.83-16.83c5.75-4.35,13.46-6.45,23.42-6.45c5.33,0,10.1,0.7,14.44,2.24
		c4.35,1.54,8.13,4.07,11.22,7.85c3.09,3.65,5.05,8.41,5.75,14.3h-23.42V368.49z"/>
	<path id="XMLID_12_" class="st1" d="M190.35,148.88c-0.7,0-1.4,0-1.96-0.14c-4.07-0.56-7.29-3.09-8.83-6.87
		c-0.7-1.82-1.12-3.65-1.12-5.75c0-2.94,0.7-5.89,1.4-7.99c3.37-12.06,7.29-20.47,11.78-25.8c0.84-0.98,1.82-1.96,2.66-2.66
		l0.28-0.14l0.28-0.28c1.68-1.26,3.37-1.82,4.91-1.82c3.79,0,7.71,3.51,11.22,9.68c3.65,6.45,6.87,15.99,9.26,27.35
		c0.84,3.79,1.54,7.85,2.1,11.92c-1.68,0.14-3.23,0.28-4.91,0.28c-5.47,0.42-10.66,0.84-15.57,1.26c-2.38,0.28-4.91,0.42-7.29,0.7
		H194C192.73,148.88,191.61,148.88,190.35,148.88"/>
	<path id="XMLID_13_" class="st2" d="M196.94,282.53L196.94,282.53c-1.68,0-3.37-0.7-5.05-1.96l0,0l0,0l-0.14-0.14l-0.14-0.14
		l-0.14-0.14l-0.14-0.14c-0.84-0.7-1.68-1.68-2.52-2.66c-4.63-5.75-8.27-14.72-11.22-27.63c-0.7-2.8-1.26-5.75-1.26-8.69
		c0-2.1,0.28-4.21,1.12-6.17c1.54-4.21,4.49-7.15,8.55-8.13c1.12-0.28,2.24-0.42,3.51-0.42c0.84,0,1.54,0,2.52,0.14
		c2.38,0.28,5.05,0.42,7.71,0.7c5.33,0.42,10.8,0.84,16.41,1.26c1.96,0.14,3.93,0.28,5.89,0.42c-0.84,5.19-1.68,10.1-2.8,14.86
		c-2.66,11.78-6.17,21.6-10.1,28.47C205.07,278.74,200.73,282.53,196.94,282.53"/>
	<path id="XMLID_14_" class="st0" d="M363.4,189.97c-0.14-23.98-7.85-47.68-21.88-66.75c-11.36-15.43-25.94-27.35-42.91-34.92
		c-1.26-0.56-5.75-1.68-6.87-1.54c-4.21,0.84-7.15,4.77-8.13,9.82c-0.28,1.26-0.28,2.52-0.28,3.93c-0.14,2.52-0.28,5.33-0.42,8.27
		c0,0.56,0,1.26-0.14,2.1c-0.14,3.37-0.28,8.41-0.7,10.24c-2.94,16.97-20.05,27.77-34.92,28.33c-10.1,0.42-20.05,0.98-29.59,1.54
		c-5.33,0.42-10.52,0.84-15.57,1.26c-2.38,0.28-4.91,0.42-7.29,0.7h-0.56c-1.26,0.14-2.66,0.28-4.07,0.28c-0.98,0-1.82,0-2.66-0.14
		c-5.75-0.84-10.24-4.35-12.34-9.68c-0.98-2.38-1.4-4.77-1.4-7.43c0-3.51,0.84-6.73,1.54-9.26c1.26-4.63,3.09-10.38,5.61-15.85
		c-8.55,8.69-15.71,18.79-21.18,30.01c-7.15,14.86-11.08,31.41-11.5,47.96c0,0.7,0,1.4,0,2.24c0,29.03,10.8,56.51,29.87,77.13
		c-2.52-6.03-4.21-12.48-5.33-17.39c-0.7-3.09-1.4-6.31-1.4-9.82c0-2.66,0.42-5.19,1.26-7.71c1.96-5.61,6.17-9.54,11.64-11.08
		c1.4-0.42,2.94-0.56,4.63-0.56c0.84,0,1.82,0,2.94,0.14c2.38,0.28,4.91,0.42,7.57,0.7c5.19,0.42,10.66,0.84,16.27,1.26
		c9.82,0.7,20.19,1.26,30.85,1.54c8.27,0.28,16.83,3.65,23.42,9.26c7.01,5.89,11.5,13.6,12.62,21.88c0.28,1.68,0.42,6.73,0.7,10.38
		c0,1.12,0.14,2.1,0.14,2.66c0.28,4.21,0.42,7.85,0.7,11.22l0,0c0.14,1.4,0.28,2.8,0.28,4.07c0.98,4.63,3.65,8.27,7.57,9.26
		c1.26,0.28,2.66,0.28,4.07,0c1.12-0.42,2.1-0.98,3.23-1.4c16.69-7.71,31.13-19.77,42.21-35.2c13.74-19.21,21.32-42.91,21.32-66.75
		L363.4,189.97L363.4,189.97z"/>
</g>
</svg>
