<?xml version="1.0" encoding="UTF-8"?>
<svg version="1.1" xmlns="http://www.w3.org/2000/svg" width="512" height="512">
<path d="M0 0 C2.40262656 -0.00961916 4.80436345 -0.04067752 7.20678711 -0.07226562 C35.79501178 -0.26759721 61.29050398 8.01219379 83.50170898 26.24023438 C84.22616211 26.81257813 84.95061523 27.38492188 85.69702148 27.97460938 C91.44938299 32.71184826 95.96715871 38.3560176 100.50170898 44.24023438 C101.09854492 44.98660156 101.69538086 45.73296875 102.31030273 46.50195312 C116.87090173 65.77036704 122.62562283 89.25817508 122.70483398 112.98632812 C122.70766136 113.64290972 122.71048874 114.29949131 122.71340179 114.97596931 C122.72832023 118.44760658 122.73759725 121.91920304 122.74194336 125.39086914 C122.74743155 128.95595679 122.7714876 132.52066325 122.79991531 136.08563137 C122.81862656 138.84732632 122.82375167 141.60893071 122.82527924 144.37068367 C122.82973523 146.31816674 122.84833181 148.26560114 122.86724854 150.21299744 C122.84374624 159.59534224 121.71325617 166.63859011 115.16186523 173.70507812 C109.98393812 178.49313778 104.34345851 180.06115736 97.50170898 181.24023438 C97.42694336 182.22378906 97.35217773 183.20734375 97.27514648 184.22070312 C94.80712821 211.86588862 84.7320805 237.45777251 63.49780273 255.95117188 C55.78777285 261.84175533 47.60213675 265.82757396 38.50170898 269.24023438 C38.17170898 276.17023438 37.84170898 283.10023438 37.50170898 290.24023438 C39.07436523 290.20542969 40.64702148 290.170625 42.26733398 290.13476562 C69.50156831 289.71106967 92.54690648 294.01617344 116.50170898 307.24023438 C116.83170898 307.57023437 117.16170898 307.90023438 117.50170898 308.24023438 C118.65030396 308.09918274 119.79889893 307.9581311 120.9822998 307.81280518 C128.55765986 306.88676888 136.19279261 307.08381723 143.81225586 307.07910156 C145.56250613 307.0744667 147.31275541 307.06944115 149.06300354 307.0640564 C153.79639464 307.05100035 158.5297716 307.04450155 163.26317787 307.04004574 C166.22403272 307.03710583 169.18488377 307.03299946 172.14573669 307.02854156 C181.4207261 307.01488859 190.69570676 307.00520948 199.97070551 307.00133967 C210.65809664 306.99685508 221.34536013 306.97927932 232.03271246 306.95033908 C240.30982648 306.92870669 248.5869046 306.91863467 256.86404657 306.91729856 C261.80113301 306.91625225 266.73809909 306.91038079 271.67515564 306.89247894 C276.31767492 306.87596986 280.95998367 306.87385651 285.6025219 306.88261795 C287.30161542 306.88338663 289.00072042 306.87906802 290.69978523 306.8691597 C311.38439843 306.75564855 311.38439843 306.75564855 319.31420898 313.80273438 C320.0219043 314.40214844 320.72959961 315.0015625 321.45874023 315.61914062 C327.83616148 323.80126234 328.08345166 332.70584428 328.01928711 342.7109375 C328.02471823 344.14445198 328.03184641 345.57796087 328.04052734 347.01145935 C328.05864636 350.87725905 328.05174098 354.74262817 328.039011 358.60843468 C328.02882364 362.67032331 328.0382925 366.73217717 328.04455566 370.79406738 C328.05181548 377.61294109 328.04228833 384.43164101 328.02319336 391.25048828 C328.00142774 399.11341101 328.0084803 406.97591874 328.03049898 414.83883142 C328.04870069 421.61199298 328.05118809 428.38503023 328.0407443 435.15820837 C328.03453548 439.19380328 328.03360121 443.22920366 328.04689026 447.26478577 C328.058518 451.06041271 328.05029833 454.85550904 328.02731323 458.65107918 C328.0220628 460.03690272 328.02347646 461.42277159 328.03236389 462.80857658 C328.09010578 472.7337328 327.23218842 481.47052502 320.37670898 489.11523438 C311.26624691 497.23198972 300.40880493 496.81726138 288.90991211 496.7578125 C287.14142787 496.76324043 285.37294816 496.77036684 283.60447693 496.77905273 C278.82551057 496.79720928 274.04689158 496.79025038 269.26791954 496.77753639 C264.25310749 496.76736884 259.23832404 496.77681246 254.22351074 496.78308105 C245.80398246 496.79034655 237.38459479 496.7807986 228.96508789 496.76171875 C219.24811868 496.73995215 209.53148525 496.7470043 199.81452417 496.76902437 C191.45327215 496.78720968 183.09212088 496.7897214 174.73085546 496.7792697 C169.74512069 496.77305197 164.75954346 496.77215162 159.77381897 496.78541565 C155.08522482 496.79701919 150.39706119 496.78886656 145.70851326 496.76583862 C143.99372635 496.76057551 142.27890285 496.76202397 140.56413078 496.77088928 C129.73249535 496.82170109 120.19916818 496.5364086 111.62670898 489.11523438 C106.09603846 482.94389517 104.27407108 476.60873914 104.40405273 468.40429688 C104.42520142 466.66720459 104.42520142 466.66720459 104.44677734 464.89501953 C104.46490479 464.01894043 104.48303223 463.14286133 104.50170898 462.24023438 C103.95671061 462.24175326 103.41171223 462.24327214 102.85019875 462.24483705 C70.5418279 462.33436926 38.23348993 462.40299064 5.92502362 462.44449569 C2.04482348 462.44949846 -1.83537641 462.45467575 -5.71557617 462.45996094 C-6.48804691 462.46101018 -7.26051766 462.46205942 -8.0563966 462.46314046 C-20.56052661 462.48054084 -33.06458298 462.5120765 -45.56866932 462.54884556 C-58.40112418 462.58626521 -71.23354049 462.60847239 -84.06604767 462.61658835 C-91.98301534 462.62207402 -99.89977487 462.63939353 -107.81667846 462.67190024 C-113.88964663 462.69556403 -119.96243613 462.69805164 -126.0354557 462.6926651 C-128.52512201 462.6937658 -131.01479617 462.70172584 -133.50441551 462.71705627 C-136.90443771 462.73696631 -140.30357037 462.73216892 -143.70361328 462.72125244 C-144.68806616 462.73290381 -145.67251904 462.74455517 -146.68680382 462.75655961 C-153.42061058 462.69814798 -159.04483815 461.52443914 -164.05744267 456.75749421 C-167.50331789 452.80808964 -168.61704044 449.73069399 -168.65942383 444.59545898 C-168.66903137 443.65274643 -168.67863892 442.71003387 -168.6885376 441.73875427 C-168.69278748 440.71701614 -168.69703735 439.69527802 -168.70141602 438.64257812 C-168.70996613 437.04827721 -168.70996613 437.04827721 -168.71868896 435.42176819 C-168.72814913 433.16131587 -168.73467697 430.9008497 -168.73852539 428.64038086 C-168.74810676 425.24306571 -168.77906724 421.8463886 -168.81079102 418.44921875 C-168.8881356 402.74740333 -168.19435827 387.2663536 -162.93579102 372.30273438 C-162.68531006 371.57731445 -162.4348291 370.85189453 -162.17675781 370.10449219 C-150.70610345 338.44589256 -127.72251471 314.62735093 -97.59008789 300.18603516 C-80.48728312 292.4530443 -62.49224571 290.0442347 -43.93579102 290.17773438 C-42.73631836 290.18224609 -41.5368457 290.18675781 -40.30102539 290.19140625 C-37.36675875 290.20309656 -34.43251809 290.22102853 -31.49829102 290.24023438 C-31.49829102 283.31023437 -31.49829102 276.38023437 -31.49829102 269.24023438 C-36.44829102 267.75523437 -36.44829102 267.75523437 -41.49829102 266.24023438 C-44.18547964 264.89009871 -46.65399851 263.56998641 -49.18579102 261.99023438 C-49.83080566 261.59545898 -50.47582031 261.20068359 -51.14038086 260.79394531 C-55.90602495 257.7974302 -59.79851291 254.49335172 -63.49829102 250.24023438 C-64.30266602 249.49773437 -65.10704102 248.75523437 -65.93579102 247.99023438 C-82.49987539 230.21414382 -92.30870716 204.55271876 -91.49829102 180.24023438 C-92.35100586 180.2015625 -92.35100586 180.2015625 -93.22094727 180.16210938 C-102.10694773 179.50938146 -107.03563152 176.1492577 -112.92016602 169.72851562 C-117.62153973 162.31570609 -117.93411794 154.64385974 -117.86157227 146.07617188 C-117.86232002 144.35075668 -117.86232002 144.35075668 -117.86308289 142.59048462 C-117.86075186 140.1649604 -117.85108104 137.73943332 -117.83447266 135.31396484 C-117.8109959 131.64723452 -117.81390588 127.98123905 -117.82055664 124.31445312 C-117.80651001 112.48321414 -117.70325803 100.90121395 -115.49829102 89.24023438 C-115.28740845 88.11198242 -115.28740845 88.11198242 -115.07226562 86.9609375 C-110.52307241 65.20513915 -99.04436948 46.80881079 -83.49829102 31.24023438 C-82.72098633 30.45132813 -81.94368164 29.66242187 -81.14282227 28.84960938 C-58.99346012 7.62777496 -29.83792583 0.07183371 0 0 Z " fill="#D5DDE1" transform="translate(176.498291015625,7.759765625)"/>
<path d="M0 0 C2.40262656 -0.00961916 4.80436345 -0.04067752 7.20678711 -0.07226562 C35.79501178 -0.26759721 61.29050398 8.01219379 83.50170898 26.24023438 C84.22616211 26.81257813 84.95061523 27.38492188 85.69702148 27.97460938 C91.44938299 32.71184826 95.96715871 38.3560176 100.50170898 44.24023438 C101.09854492 44.98660156 101.69538086 45.73296875 102.31030273 46.50195312 C116.87090173 65.77036704 122.62562283 89.25817508 122.70483398 112.98632812 C122.70907505 113.97120051 122.70907505 113.97120051 122.71340179 114.97596931 C122.72832023 118.44760658 122.73759725 121.91920304 122.74194336 125.39086914 C122.74743155 128.95595679 122.7714876 132.52066325 122.79991531 136.08563137 C122.81862656 138.84732632 122.82375167 141.60893071 122.82527924 144.37068367 C122.82973523 146.31816674 122.84833181 148.26560114 122.86724854 150.21299744 C122.84374624 159.59534224 121.71325617 166.63859011 115.16186523 173.70507812 C109.98393812 178.49313778 104.34345851 180.06115736 97.50170898 181.24023438 C97.42694336 182.22378906 97.35217773 183.20734375 97.27514648 184.22070312 C94.80712821 211.86588862 84.7320805 237.45777251 63.49780273 255.95117188 C55.85440509 261.79084726 47.54663615 266.00778499 38.50170898 269.24023438 C38.51331055 269.84907471 38.52491211 270.45791504 38.53686523 271.08520508 C38.56678328 273.90898812 38.53447949 276.72900918 38.50170898 279.55273438 C38.52104492 280.50986328 38.54038086 281.46699219 38.56030273 282.453125 C38.3996567 290.40510358 35.72717628 294.4039259 30.84875488 300.47549438 C28.06429902 304.12335866 25.61414984 308.00715924 23.10327148 311.84570312 C21.95388261 313.58747107 20.80413839 315.32900456 19.65405273 317.0703125 C17.87357876 319.77224245 16.09534985 322.4755789 14.3215332 325.18188477 C12.58820598 327.82389852 10.84644182 330.46017715 9.10327148 333.09570312 C8.3033226 334.32355782 8.3033226 334.32355782 7.48721313 335.57621765 C6.99264618 336.32152237 6.49807922 337.06682709 5.98852539 337.8347168 C5.55520905 338.49436935 5.1218927 339.15402191 4.67544556 339.83366394 C4.28811249 340.29783218 3.90077942 340.76200043 3.50170898 341.24023438 C2.84170898 341.24023438 2.18170898 341.24023438 1.50170898 341.24023438 C0.18716431 339.61019897 0.18716431 339.61019897 -1.32397461 337.29638672 C-2.17528458 336.00406631 -2.17528458 336.00406631 -3.04379272 334.68563843 C-3.65526154 333.74201447 -4.26673035 332.7983905 -4.89672852 331.82617188 C-5.52809723 330.86377594 -6.15946594 329.90138 -6.80996704 328.90982056 C-8.83763202 325.81585946 -10.85557275 322.71568924 -12.87329102 319.61523438 C-14.22681566 317.54580389 -15.58097439 315.47678799 -16.93579102 313.40820312 C-19.97556085 308.76533794 -23.01451865 304.12198262 -26.03027344 299.46347046 C-26.92249872 298.11224178 -27.83608275 296.77439448 -28.78662109 295.46353149 C-31.18506721 292.15174213 -31.9851239 289.93063214 -31.88891602 285.84179688 C-31.86958008 284.38193359 -31.86958008 284.38193359 -31.84985352 282.89257812 C-31.81633789 281.89355469 -31.78282227 280.89453125 -31.74829102 279.86523438 C-31.73024414 278.84300781 -31.71219727 277.82078125 -31.69360352 276.76757812 C-31.64668592 274.25748689 -31.58105831 271.74935673 -31.49829102 269.24023438 C-32.130979 269.07297852 -32.76366699 268.90572266 -33.41552734 268.73339844 C-39.1787872 267.12212962 -44.11425171 265.15470165 -49.18579102 261.99023438 C-49.83080566 261.59545898 -50.47582031 261.20068359 -51.14038086 260.79394531 C-55.90602495 257.7974302 -59.79851291 254.49335172 -63.49829102 250.24023438 C-64.70485352 249.12648438 -64.70485352 249.12648438 -65.93579102 247.99023438 C-82.49987539 230.21414382 -92.30870716 204.55271876 -91.49829102 180.24023438 C-92.06676758 180.21445313 -92.63524414 180.18867188 -93.22094727 180.16210938 C-102.10694773 179.50938146 -107.03563152 176.1492577 -112.92016602 169.72851562 C-117.62153973 162.31570609 -117.93411794 154.64385974 -117.86157227 146.07617188 C-117.86207077 144.92589508 -117.86256927 143.77561829 -117.86308289 142.59048462 C-117.86075186 140.1649604 -117.85108104 137.73943332 -117.83447266 135.31396484 C-117.8109959 131.64723452 -117.81390588 127.98123905 -117.82055664 124.31445312 C-117.80651001 112.48321414 -117.70325803 100.90121395 -115.49829102 89.24023438 C-115.35770264 88.48806641 -115.21711426 87.73589844 -115.07226562 86.9609375 C-110.52307241 65.20513915 -99.04436948 46.80881079 -83.49829102 31.24023438 C-82.72098633 30.45132813 -81.94368164 29.66242187 -81.14282227 28.84960938 C-58.99346012 7.62777496 -29.83792583 0.07183371 0 0 Z " fill="#FEB99B" transform="translate(176.498291015625,7.759765625)"/>
<path d="M0 0 C1.09588013 -0.00573832 1.09588013 -0.00573832 2.21389925 -0.01159257 C4.64492231 -0.02185379 7.07570613 -0.01794361 9.50674438 -0.01396179 C11.25670082 -0.01831209 13.00665534 -0.0234963 14.75660706 -0.02944946 C19.49840269 -0.04281683 24.2401185 -0.04342062 28.9819293 -0.04088616 C32.94553727 -0.03981487 36.90912919 -0.04470391 40.87273371 -0.04949158 C50.22649822 -0.06057906 59.58022258 -0.06102852 68.93399048 -0.05497742 C78.57190215 -0.0489382 88.20966781 -0.06124909 97.84755456 -0.08254749 C106.13312756 -0.10018175 114.41865415 -0.10616194 122.70424521 -0.10290974 C127.64805868 -0.10109958 132.591768 -0.10370642 137.53556442 -0.11762428 C142.1862779 -0.13022762 146.83676432 -0.12823484 151.48747444 -0.11521339 C153.18978643 -0.11285348 154.89211452 -0.11556125 156.59440804 -0.12383652 C177.31340004 -0.21725779 177.31340004 -0.21725779 185.23574829 6.82319641 C186.29729126 7.7223175 186.29729126 7.7223175 187.38027954 8.63960266 C193.75770079 16.82172438 194.00499097 25.72630631 193.94082642 35.73139954 C193.94625753 37.16491402 193.95338571 38.5984229 193.96206665 40.03192139 C193.98018567 43.89772109 193.97328029 47.76309021 193.96055031 51.62889671 C193.95036294 55.69078535 193.95983181 59.7526392 193.96609497 63.81452942 C193.97335478 70.63340312 193.96382763 77.45210305 193.94473267 84.27095032 C193.92296704 92.13387305 193.9300196 99.99638078 193.95203829 107.85929346 C193.97024 114.63245502 193.97272739 121.40549227 193.96228361 128.17867041 C193.95607479 132.21426531 193.95514052 136.2496657 193.96842957 140.2852478 C193.98005731 144.08087475 193.97183764 147.87597108 193.94885254 151.67154121 C193.94360211 153.05736476 193.94501577 154.44323363 193.9539032 155.82903862 C194.01164509 165.75419484 193.15372773 174.49098705 186.29824829 182.13569641 C177.18778621 190.25245176 166.33034424 189.83772342 154.83145142 189.77827454 C153.06296718 189.78370246 151.29448747 189.79082887 149.52601624 189.79951477 C144.74704987 189.81767132 139.96843089 189.81071241 135.18945885 189.79799843 C130.17464679 189.78783088 125.15986334 189.7972745 120.14505005 189.80354309 C111.72552177 189.81080859 103.3061341 189.80126064 94.8866272 189.78218079 C85.16965799 189.76041419 75.45302456 189.76746633 65.73606348 189.78948641 C57.37481146 189.80767172 49.01366019 189.81018344 40.65239477 189.79973173 C35.66666 189.793514 30.68108276 189.79261366 25.69535828 189.80587769 C21.00676412 189.81748122 16.31860049 189.80932859 11.63005257 189.78630066 C9.91526566 189.78103754 8.20044216 189.78248601 6.48567009 189.79135132 C-4.24931343 189.84170973 -14.02335336 189.64478287 -22.45175171 182.13569641 C-29.9063172 173.81738939 -30.14417641 164.25118993 -30.00253296 153.57466125 C-29.99808179 152.11820892 -29.9953585 150.66175044 -29.99421692 149.20529175 C-29.98576787 145.27751339 -29.95188976 141.35034598 -29.91212463 137.42277479 C-29.8736401 133.29864063 -29.85522946 129.17440602 -29.83358765 125.05015564 C-29.79396448 118.12863287 -29.73735594 111.20740148 -29.67098999 104.28608704 C-29.59464786 96.29832364 -29.54717697 88.31077296 -29.51470089 80.32271993 C-29.48254286 72.61679386 -29.42809155 64.911171 -29.36419678 57.20544815 C-29.33757652 53.93531844 -29.31902028 50.66529226 -29.30712891 47.39507675 C-29.29224074 43.54188653 -29.25785591 39.68934051 -29.2087574 35.83643913 C-29.19391399 34.42724629 -29.18569342 33.01796479 -29.18478203 31.60869408 C-29.17370575 22.54832516 -28.76143596 15.93490976 -22.50643921 8.94819641 C-21.82839233 8.39132141 -21.15034546 7.83444641 -20.45175171 7.26069641 C-19.76854858 6.68319641 -19.08534546 6.10569641 -18.38143921 5.51069641 C-16.57675171 4.26069641 -16.57675171 4.26069641 -14.57675171 4.26069641 C-14.57675171 3.60069641 -14.57675171 2.94069641 -14.57675171 2.26069641 C-9.55645898 0.62892006 -5.33167185 0.00840734 0 0 Z " fill="#242C4C" transform="translate(310.5767517089844,314.7393035888672)"/>
<path d="M0 0 C2.40262656 -0.00961916 4.80436345 -0.04067752 7.20678711 -0.07226562 C35.79501178 -0.26759721 61.29050398 8.01219379 83.50170898 26.24023438 C84.22616211 26.81257813 84.95061523 27.38492188 85.69702148 27.97460938 C91.44938299 32.71184826 95.96715871 38.3560176 100.50170898 44.24023438 C101.09854492 44.98660156 101.69538086 45.73296875 102.31030273 46.50195312 C116.22793339 64.91951056 122.71072788 88.04285135 122.59936523 110.86132812 C122.59724281 112.51117455 122.59724281 112.51117455 122.59507751 114.1943512 C122.58950402 117.68884055 122.57695638 121.18326456 122.56420898 124.67773438 C122.55919056 127.05468657 122.55462825 129.43163978 122.55053711 131.80859375 C122.53954327 137.61916271 122.5228316 143.42969387 122.50170898 149.24023438 C120.50170898 146.24023438 120.50170898 146.24023438 119.27514648 143.93554688 C115.994244 137.90528477 112.98218462 133.83469053 106.50170898 131.24023438 C103.19030067 130.34615413 99.89855182 129.70660419 96.50170898 129.24023438 C96.38956055 128.33144531 96.38956055 128.33144531 96.27514648 127.40429688 C94.89711341 118.62271355 91.86032885 111.50200115 84.57592773 106.13476562 C79.0214788 102.59268378 73.27299338 101.43126818 66.87670898 100.17773438 C64.55272224 99.67878653 62.22978898 99.1749054 59.90795898 98.66601562 C58.79936523 98.42447754 57.69077148 98.18293945 56.54858398 97.93408203 C37.17129156 93.52140053 17.99194093 83.90008054 3.50170898 70.24023438 C0.54659143 71.57003728 -1.45311751 73.03437365 -3.74829102 75.30273438 C-12.93084381 83.50878435 -25.04381494 89.02641157 -36.49829102 93.24023438 C-37.57594727 93.64757812 -38.65360352 94.05492188 -39.76391602 94.47460938 C-45.57073096 96.54664466 -51.24849703 98.23650562 -57.28735352 99.45507812 C-58.3020874 99.66003906 -59.31682129 99.865 -60.36230469 100.07617188 C-62.36374605 100.46790684 -64.36915497 100.84004507 -66.37841797 101.18945312 C-75.54367199 102.95761857 -81.87643025 107.33862826 -87.31469727 114.94335938 C-89.14390832 118.49311547 -89.67100961 122.08503455 -90.17407227 126.01757812 C-90.49829102 128.24023438 -90.49829102 128.24023438 -91.49829102 129.24023438 C-93.01654998 129.48587861 -94.53806089 129.71152995 -96.06079102 129.92773438 C-101.74058262 131.01656424 -105.29149544 133.36529738 -109.49829102 137.24023438 C-110.26141602 137.94148437 -111.02454102 138.64273438 -111.81079102 139.36523438 C-114.51205587 143.96738931 -115.40623989 149.05299151 -116.49829102 154.24023438 C-116.82829102 154.24023438 -117.15829102 154.24023438 -117.49829102 154.24023438 C-117.54955595 147.39415738 -117.58425822 140.54813099 -117.6081543 133.7019043 C-117.61813018 131.37929434 -117.63171569 129.05669666 -117.64916992 126.73413086 C-117.83275381 101.65333166 -117.83275381 101.65333166 -115.49829102 89.24023438 C-115.35746094 88.48621338 -115.21663086 87.73219238 -115.0715332 86.95532227 C-110.51764468 65.20127371 -99.04444301 46.80888442 -83.49829102 31.24023438 C-82.72098633 30.45132813 -81.94368164 29.66242187 -81.14282227 28.84960938 C-58.99346012 7.62777496 -29.83792583 0.07183371 0 0 Z " fill="#242C4C" transform="translate(176.498291015625,7.759765625)"/>
<path d="M0 0 C4.51252869 0.48508046 8.56605421 0.94825988 12.8046875 2.63671875 C14.04460449 3.12760986 14.04460449 3.12760986 15.30957031 3.62841797 C16.15616211 3.97791504 17.00275391 4.32741211 17.875 4.6875 C18.7525293 5.04473145 19.63005859 5.40196289 20.53417969 5.77001953 C33.20392203 11.03692505 33.20392203 11.03692505 38 15 C38 15.66 38 16.32 38 17 C37.13375 17.53625 36.2675 18.0725 35.375 18.625 C30.47968213 21.70637585 26.8205523 26.53834311 25 32 C24.89770493 33.83919571 24.85366549 35.68184951 24.84178162 37.52384949 C24.82712058 39.24294037 24.82712058 39.24294037 24.81216335 40.99676037 C24.8063931 42.26006333 24.80062284 43.5233663 24.79467773 44.82495117 C24.78496227 46.18699347 24.77481679 47.54903276 24.76427555 48.91106892 C24.73721315 52.56150512 24.71604335 56.21195335 24.69608307 59.86243439 C24.67646968 63.28677419 24.65155685 66.71106737 24.6270752 70.13537598 C24.55855171 80.1527156 24.49854754 90.17011203 24.4375 100.1875 C24.293125 122.565625 24.14875 144.94375 24 168 C-21.21 168 -66.42 168 -113 168 C-110.75169339 155.63431366 -110.75169339 155.63431366 -109.47192383 150.70581055 C-109.04687309 149.05436287 -109.04687309 149.05436287 -108.61323547 147.36955261 C-108.31418808 146.22021744 -108.01514069 145.07088226 -107.70703125 143.88671875 C-107.07048799 141.39790804 -106.43443454 138.90897201 -105.79882812 136.41992188 C-104.80316519 132.53661457 -103.80472404 128.6541396 -102.79614258 124.77416992 C-101.81625424 121.00239606 -100.85531757 117.22590482 -99.89453125 113.44921875 C-99.58941116 112.28976242 -99.28429108 111.13030609 -98.96992493 109.93571472 C-98.69601425 108.85051041 -98.42210358 107.76530609 -98.13989258 106.6472168 C-97.89499588 105.69888474 -97.65009918 104.75055267 -97.39778137 103.77348328 C-96.61112922 98.28864477 -98.31433054 93.81354668 -100.46875 88.83203125 C-100.95730469 87.69185547 -101.44585937 86.55167969 -101.94921875 85.37695312 C-102.46097656 84.20068359 -102.97273437 83.02441406 -103.5 81.8125 C-104.51125933 79.46520661 -105.52171466 77.11756662 -106.53125 74.76953125 C-106.98048828 73.73417236 -107.42972656 72.69881348 -107.89257812 71.63208008 C-109 69 -109 69 -110 66 C-105.85338597 63.37343034 -101.69114031 60.77454689 -97.51220703 58.19970703 C-96.09354026 57.32037348 -94.67939893 56.43369429 -93.27001953 55.53955078 C-91.24100583 54.2540798 -89.19708293 52.99606759 -87.1484375 51.7421875 C-86.52319183 51.3381369 -85.89794617 50.9340863 -85.25375366 50.51779175 C-82.1655924 48.66271858 -80.51649182 47.90684065 -76.9206543 48.55541992 C-73.89813103 50.05038525 -71.00234426 51.61781213 -68.12109375 53.37109375 C-66.49204102 54.35625977 -66.49204102 54.35625977 -64.83007812 55.36132812 C-63.15075195 56.3890332 -63.15075195 56.3890332 -61.4375 57.4375 C-60.31408203 58.11876953 -59.19066406 58.80003906 -58.03320312 59.50195312 C-55.94294698 60.77001701 -53.85415385 62.04049802 -51.76733398 63.31420898 C-50.85411377 63.87052002 -49.94089355 64.42683105 -49 65 C-48.12867432 65.55824463 -47.25734863 66.11648926 -46.35961914 66.69165039 C-43.03229877 68.53656605 -40.74505857 68.46813232 -37 68 C-32.69445558 65.18936802 -30.75182742 62.23875828 -28.49487305 57.67089844 C-28.18202866 57.04608582 -27.86918427 56.42127319 -27.54685974 55.77752686 C-26.52365388 53.72696114 -25.51767676 51.66844922 -24.51171875 49.609375 C-23.80246819 48.17967419 -23.0921505 46.7505023 -22.3808136 45.32183838 C-20.51742567 41.57222607 -18.66856881 37.81563038 -16.82269287 34.05737305 C-14.93417441 30.21880366 -13.03193753 26.38704761 -11.13085938 22.5546875 C-7.4071474 15.04304205 -3.69876593 7.52396008 0 0 Z " fill="#D4DCE0" transform="translate(258,302)"/>
<path d="M0 0 C6.21962385 -1.3583643 12.15942307 -2.31104743 18.13671875 0.47802734 C31.35952369 9.37663674 39.90507218 29.03100899 47.66400146 42.51324463 C48.82379768 44.46678265 50.04311814 46.34109596 51.33251953 48.21044922 C52.96875 50.7109375 52.96875 50.7109375 52.96875 52.7109375 C55.73403393 50.07726375 57.95533755 47.46313525 60.03735352 44.26538086 C60.60797012 43.39445297 61.17858673 42.52352509 61.76649475 41.62620544 C62.37077805 40.69381546 62.97506134 39.76142548 63.59765625 38.80078125 C64.22856674 37.83693008 64.85947723 36.87307892 65.50950623 35.88002014 C67.5213265 32.80578474 69.5268544 29.72751804 71.53125 26.6484375 C73.53963219 23.56606698 75.54943338 20.48466839 77.56370544 17.40614319 C78.81600275 15.49198666 80.06487317 13.57558285 81.30995178 11.65672302 C81.87741623 10.7889473 82.44488068 9.92117157 83.02954102 9.02709961 C83.52599625 8.26417099 84.02245148 7.50124237 84.53395081 6.7151947 C88.00027888 1.87311434 88.00027888 1.87311434 91.28686523 1.32275391 C92.19122314 1.31937012 93.09558105 1.31598633 94.02734375 1.3125 C95.04449463 1.30669922 96.06164551 1.30089844 97.10961914 1.29492188 C98.19750732 1.30845703 99.28539551 1.32199219 100.40625 1.3359375 C101.51540771 1.34173828 102.62456543 1.34753906 103.76733398 1.35351562 C114.0320445 1.51214605 123.88874908 2.89448097 133.96875 4.7109375 C127.7059692 18.04523306 121.32831704 31.32005407 114.79272461 44.52294922 C113.77407265 46.58723729 112.76116491 48.65436865 111.75366211 50.72412109 C110.27238043 53.76561007 108.77302834 56.79756854 107.26953125 59.828125 C106.60368767 61.20930008 106.60368767 61.20930008 105.9243927 62.61837769 C103.28815848 67.87433675 101.06075584 71.62523719 95.96875 74.7109375 C90.38629618 75.58282521 86.76356581 73.98859953 82.1171875 71.09765625 C81.4952652 70.72743851 80.8733429 70.35722076 80.23257446 69.9757843 C78.26069868 68.79750453 76.30238435 67.59857163 74.34375 66.3984375 C73.02167769 65.60341191 71.69876727 64.80977828 70.375 64.01757812 C67.9405242 62.55757761 65.51087366 61.09025506 63.08740234 59.61206055 C61.54366943 58.67100464 61.54366943 58.67100464 59.96875 57.7109375 C59.11104004 57.0919458 58.25333008 56.4729541 57.36962891 55.83520508 C55.02244216 54.43098894 55.02244216 54.43098894 52.54931641 55.296875 C49.56244583 56.93357835 46.60592464 58.59209296 43.6796875 60.3359375 C43.09458405 60.68350098 42.50948059 61.03106445 41.90664673 61.38916016 C40.0503394 62.4930863 38.19708147 63.60202429 36.34375 64.7109375 C35.09133049 65.45603964 33.83872804 66.20083436 32.5859375 66.9453125 C26.21061658 70.72115331 26.21061658 70.72115331 19.96875 74.7109375 C13.12737069 75.37300647 13.12737069 75.37300647 9.5625 73.3359375 C5.7896662 69.51764788 3.72473755 65.11089552 1.34375 60.3359375 C0.82522461 59.31878662 0.30669922 58.30163574 -0.22753906 57.25366211 C-1.84146032 54.07898003 -3.43797069 50.89602177 -5.03125 47.7109375 C-6.01279839 45.76160673 -6.99456163 43.81238412 -7.9765625 41.86328125 C-9.82028937 38.19519171 -11.65275617 34.52178172 -13.4765625 30.84375 C-15.11744487 27.53597882 -16.77718219 24.23927481 -18.4609375 20.953125 C-18.83379883 20.22150146 -19.20666016 19.48987793 -19.59082031 18.73608398 C-20.2754545 17.39458376 -20.96454251 16.05534215 -21.65917969 14.71899414 C-23.34435236 11.40238287 -24.514689 8.40365062 -25.03125 4.7109375 C-20.65147818 3.82442947 -16.31106956 3.08832588 -11.875 2.546875 C-7.75940836 2.04221176 -3.98136935 1.14464369 0 0 Z " fill="#E7ECEE" transform="translate(125.03125,296.2890625)"/>
<path d="M0 0 C0.7460701 -0.00004028 1.4921402 -0.00008057 2.26081848 -0.00012207 C3.8368066 0.00522462 5.41279479 0.02277146 6.98852539 0.05175781 C9.3701576 0.09332461 11.7489282 0.09284522 14.13085938 0.0859375 C26.84450272 0.13769758 36.67192403 1.47877203 46.20703125 10.59375 C53.91765217 18.85993968 55.96451777 27.47241025 55.76171875 38.66015625 C54.52429029 47.43544117 49.85414357 54.87218711 44.20703125 61.59375 C44.86703125 61.59375 45.52703125 61.59375 46.20703125 61.59375 C47.609375 63.31640625 47.609375 63.31640625 49.14453125 65.65625 C49.64855469 66.41035156 50.15257812 67.16445313 50.671875 67.94140625 C54.31520732 74.23612036 55.67386727 78.99694148 55.67578125 86.1953125 C55.68720154 87.39454849 55.68720154 87.39454849 55.69885254 88.61801147 C55.70959613 90.2970672 55.71253016 91.97618943 55.70800781 93.65527344 C55.70703107 96.21922607 55.74880389 98.78022515 55.79296875 101.34375 C55.79817344 102.98176463 55.80086398 104.6197896 55.80078125 106.2578125 C55.81717651 107.01937653 55.83357178 107.78094055 55.85046387 108.56558228 C55.79886322 112.54592408 55.3583325 114.39855862 52.89257812 117.57958984 C50.20703125 119.59375 50.20703125 119.59375 46.64453125 120.15625 C42.72601414 119.51503811 41.58144899 118.69875781 39.20703125 115.59375 C37.73436201 112.64841152 38.0507546 109.6555023 38.03125 106.42578125 C38.00803658 104.96027234 37.98391864 103.49477752 37.95898438 102.02929688 C37.92399429 99.72313206 37.89459696 97.41748087 37.88110352 95.11108398 C37.86551563 92.88201623 37.82522767 90.65444716 37.78125 88.42578125 C37.78315842 87.74634964 37.78506683 87.06691803 37.78703308 86.36689758 C37.65831781 81.26462443 36.56751378 77.41729188 33.20703125 73.59375 C27.5139588 69.13483241 21.18466551 68.94961755 14.20703125 68.84375 C12.75876953 68.79927734 12.75876953 68.79927734 11.28125 68.75390625 C8.92309659 68.68386209 6.56589379 68.63084708 4.20703125 68.59375 C4.21813431 69.15893845 4.22923737 69.72412689 4.24067688 70.30644226 C4.35139138 76.19493794 4.42674809 82.08313747 4.48168945 87.97241211 C4.50681634 90.1694744 4.54092371 92.36645324 4.58422852 94.56323242 C4.64495887 97.72335405 4.67325958 100.88236957 4.6953125 104.04296875 C4.72111893 105.02335617 4.74692535 106.00374359 4.77351379 107.01383972 C4.77542613 111.67537625 4.73690256 113.87643665 1.89916992 117.71801758 C-1.62709127 120.17492016 -3.58049114 120.28306452 -7.79296875 119.59375 C-10.15794314 117.72666495 -11.4532759 116.27313569 -12.79296875 113.59375 C-12.89528808 112.16082852 -12.9367117 110.72332298 -12.9468689 109.28678894 C-12.95976959 107.93041069 -12.95976959 107.93041069 -12.97293091 106.54663086 C-12.97719086 105.55179687 -12.98145081 104.55696289 -12.98583984 103.53198242 C-12.99401733 102.48633621 -13.00219482 101.44069 -13.01062012 100.36335754 C-13.03549803 96.89198383 -13.05199548 93.42065105 -13.06640625 89.94921875 C-13.07172993 88.76577692 -13.0770536 87.58233509 -13.0825386 86.36303139 C-13.10927939 80.10034456 -13.12865218 73.83767775 -13.14306641 67.57495117 C-13.15972499 61.09811307 -13.20451096 54.62178274 -13.25543785 48.14513683 C-13.28905059 43.17205706 -13.30063729 38.19909875 -13.30629349 33.22591591 C-13.31302144 30.83804756 -13.32828323 28.45018763 -13.3521843 26.06242943 C-13.38371195 22.72242901 -13.38389076 19.38381059 -13.37646484 16.04370117 C-13.39287018 15.05493988 -13.40927551 14.06617859 -13.42617798 13.04745483 C-13.38409063 8.42959099 -13.30140956 6.27927108 -10.48286438 2.4790802 C-6.99394832 0.03372182 -4.11460694 -0.09522806 0 0 Z " fill="#FCFDFD" transform="translate(413.79296875,349.40625)"/>
<path d="M0 0 C3.18399097 1.58354989 6.20068265 3.27759939 9.21875 5.16015625 C9.78735748 5.51246307 10.35596497 5.8647699 10.94180298 6.22775269 C12.73830336 7.34268434 14.52932737 8.46607892 16.3203125 9.58984375 C17.54521959 10.35213055 18.77047686 11.11385495 19.99609375 11.875 C22.98324208 13.7317979 25.9655446 15.59621879 28.9453125 17.46484375 C27.45539225 22.31430101 25.77392524 26.99567939 23.68359375 31.62109375 C23.08901367 32.93787109 23.08901367 32.93787109 22.48242188 34.28125 C21.66398394 36.0747647 20.83578665 37.86385696 19.99804688 39.6484375 C19.60552734 40.52628906 19.21300781 41.40414062 18.80859375 42.30859375 C18.45063721 43.08396484 18.09268066 43.85933594 17.72387695 44.65820312 C15.28382915 53.45431147 17.99176595 61.80458667 20.2265625 70.36328125 C20.56390224 71.68818269 20.90018777 73.01335294 21.23547363 74.33877563 C22.11406273 77.80213881 23.0047406 81.2622673 23.89874268 84.72167969 C25.33245386 90.27785086 26.74781496 95.83871954 28.1625824 101.39973831 C28.6572917 103.3367702 29.1577692 105.27232596 29.6583252 107.20785522 C29.95863647 108.37982452 30.25894775 109.55179382 30.56835938 110.75927734 C30.83483276 111.79136322 31.10130615 112.8234491 31.37585449 113.8868103 C31.9453125 116.46484375 31.9453125 116.46484375 31.9453125 119.46484375 C9.5053125 119.46484375 -12.9346875 119.46484375 -36.0546875 119.46484375 C-33.80638089 107.09915741 -33.80638089 107.09915741 -32.52661133 102.1706543 C-32.24324417 101.06968918 -31.95987701 99.96872406 -31.66792297 98.83439636 C-31.36887558 97.68506119 -31.06982819 96.53572601 -30.76171875 95.3515625 C-30.12517549 92.86275179 -29.48912204 90.37381576 -28.85351562 87.88476562 C-27.85785269 84.00145832 -26.85941154 80.11898335 -25.85083008 76.23901367 C-24.87094174 72.46723981 -23.91000507 68.69074857 -22.94921875 64.9140625 C-22.64409866 63.75460617 -22.33897858 62.59514984 -22.02461243 61.40055847 C-21.75070175 60.31535416 -21.47679108 59.23014984 -21.19458008 58.11206055 C-20.94968338 57.16372849 -20.70478668 56.21539642 -20.45246887 55.23832703 C-19.66581672 49.75348852 -21.36901804 45.27839043 -23.5234375 40.296875 C-24.01199219 39.15669922 -24.50054687 38.01652344 -25.00390625 36.84179688 C-25.51566406 35.66552734 -26.02742187 34.48925781 -26.5546875 33.27734375 C-27.56594683 30.93005036 -28.57640216 28.58241037 -29.5859375 26.234375 C-30.03517578 25.19901611 -30.48441406 24.16365723 -30.94726562 23.09692383 C-32.0546875 20.46484375 -32.0546875 20.46484375 -33.0546875 17.46484375 C-28.90807347 14.83827409 -24.74582781 12.23939064 -20.56689453 9.66455078 C-19.14822776 8.78521723 -17.73408643 7.89853804 -16.32470703 7.00439453 C-14.29569333 5.71892355 -12.25177043 4.46091134 -10.203125 3.20703125 C-9.57787933 2.80298065 -8.95263367 2.39893005 -8.30844116 1.9826355 C-5.2410713 0.14005183 -3.57379674 -0.62609994 0 0 Z " fill="#C44A4A" transform="translate(181.0546875,350.53515625)"/>
<path d="M0 0 C3.65907504 0.68607657 5.35167676 1.98984314 8 4.5625 C9.1760003 6.9145006 9.12084541 8.29984401 9.11352539 10.92041016 C9.11344986 11.82119293 9.11337433 12.72197571 9.11329651 13.65005493 C9.10813522 14.62405243 9.10297394 15.59804993 9.09765625 16.6015625 C9.0962413 17.59755463 9.09482635 18.59354675 9.09336853 19.61972046 C9.08775936 22.80901053 9.0752053 25.99823106 9.0625 29.1875 C9.05748618 31.34635315 9.05292307 33.50520741 9.04882812 35.6640625 C9.03863673 40.96359018 9.01906307 46.26296701 9 51.5625 C20.22 51.5625 31.44 51.5625 43 51.5625 C42.94199219 48.29988281 42.88398438 45.03726563 42.82421875 41.67578125 C42.78521218 38.51182485 42.75485946 35.34789535 42.7253418 32.18383789 C42.70021491 29.9867756 42.66610754 27.78979676 42.62280273 25.59301758 C42.56207238 22.43289595 42.53377167 19.27388043 42.51171875 16.11328125 C42.48591232 15.13289383 42.4601059 14.15250641 42.43351746 13.14241028 C42.43159526 8.45682849 42.46430342 6.27980001 45.33911133 2.43041992 C48.57321502 0.16010821 50.12538684 -0.01457005 54 0.5625 C57.34265205 1.76956879 57.94704566 2.48306849 60 5.5625 C60.25447559 7.60435295 60.25447559 7.60435295 60.26069641 9.98971558 C60.26778122 10.89534241 60.27486603 11.80096924 60.28216553 12.73403931 C60.27968811 13.72527802 60.27721069 14.71651672 60.2746582 15.73779297 C60.27976913 16.78358521 60.28488007 17.82937744 60.29014587 18.90686035 C60.30407524 22.37286054 60.30308244 25.8386626 60.30078125 29.3046875 C60.30466659 31.70980911 60.30900093 34.11493003 60.31376648 36.52005005 C60.32123608 41.5656354 60.32093222 46.61115079 60.31567383 51.65673828 C60.30988102 58.12557859 60.32680232 64.59413241 60.3500185 71.06292534 C60.36474479 76.03172483 60.36562898 81.00045517 60.36250877 85.96927261 C60.36302263 88.35431612 60.36827239 90.73936344 60.37832069 93.12438583 C60.39064483 96.45925288 60.38391694 99.79356001 60.37231445 103.12841797 C60.37995819 104.11560822 60.38760193 105.10279846 60.39547729 106.11990356 C60.35754027 111.04850279 60.31274233 114.61142099 57 118.5625 C53.94306678 120.09096661 51.37015453 119.79492445 48 119.5625 C44.8149643 117.80234869 44.16703028 117.06359084 43 113.5625 C42.91349416 112.07405284 42.88229827 110.58201743 42.88647461 109.09106445 C42.88655014 108.19035721 42.88662567 107.28964996 42.88670349 106.36164856 C42.89186478 105.39281235 42.89702606 104.42397614 42.90234375 103.42578125 C42.9037587 102.43120407 42.90517365 101.43662689 42.90663147 100.41191101 C42.91223239 97.23291018 42.92478504 94.05397957 42.9375 90.875 C42.94251488 88.72070414 42.94707781 86.56640718 42.95117188 84.41210938 C42.96135155 79.12885737 42.98092687 73.84575738 43 68.5625 C31.78 68.5625 20.56 68.5625 9 68.5625 C9.02320313 71.76453125 9.04640625 74.9665625 9.0703125 78.265625 C9.08590981 81.36669519 9.09805412 84.46776101 9.10986328 87.56884766 C9.1199211 89.72414099 9.13356899 91.87942068 9.15087891 94.03466797 C9.17513662 97.13252124 9.18648532 100.23019409 9.1953125 103.328125 C9.20563507 104.29179993 9.21595764 105.25547485 9.22659302 106.24835205 C9.22674408 107.14898376 9.22689514 108.04961548 9.22705078 108.97753906 C9.231492 109.76807678 9.23593323 110.5586145 9.24050903 111.37310791 C8.96436591 113.88688278 8.3583163 115.43417554 7 117.5625 C3.8090836 119.6897776 1.79840226 119.89631412 -1.96484375 120.12109375 C-5.32280553 119.1994267 -6.19944171 117.51059513 -8 114.5625 C-8.6000706 111.06700589 -8.5567007 107.60810241 -8.53344727 104.06835938 C-8.54206284 103.01252151 -8.55067841 101.95668365 -8.55955505 100.86885071 C-8.58224564 97.38106732 -8.57547045 93.89408532 -8.56640625 90.40625 C-8.57164019 87.98156495 -8.57791582 85.55688194 -8.58518982 83.13220215 C-8.5955996 78.05141618 -8.59102358 72.97091019 -8.57641602 67.89013672 C-8.55922213 61.37629842 -8.58272911 54.86334168 -8.61790562 48.34960175 C-8.6398551 43.34301905 -8.63844406 38.33664811 -8.6301403 33.33003235 C-8.62931956 30.92823825 -8.63620636 28.52642879 -8.65091133 26.12467957 C-8.66831224 22.76811345 -8.65385018 19.41314227 -8.63110352 16.05664062 C-8.64279572 15.06324173 -8.65448792 14.06984283 -8.66653442 13.04634094 C-8.6023309 8.39474055 -8.51827514 6.25018453 -5.64805603 2.44177246 C-3 0.5625 -3 0.5625 0 0 Z " fill="#FDFDFD" transform="translate(324,349.4375)"/>
<path d="M0 0 C0.94472168 0.21221191 1.88944336 0.42442383 2.86279297 0.64306641 C12.57950429 2.71070034 21.89500114 3.47330271 31.81884766 3.39111328 C34.1311288 3.37495718 36.44167569 3.39111148 38.75390625 3.41015625 C47.27152597 3.42034398 54.97662904 2.71139101 63.27294922 0.64306641 C66 0 66 0 69 0 C69.23645288 3.43629701 69.37572279 6.87046526 69.5 10.3125 C69.60054687 11.74819336 69.60054687 11.74819336 69.703125 13.21289062 C69.9200426 21.26595668 67.3044175 25.12247583 62.35510254 31.23526001 C59.55905158 34.87653645 57.11218113 38.76482918 54.6015625 42.60546875 C53.4522307 44.34727435 52.30248569 46.08880737 51.15234375 47.83007812 C49.37186978 50.53200808 47.59364086 53.23534453 45.81982422 55.94165039 C44.08649699 58.58366415 42.34473284 61.21994277 40.6015625 63.85546875 C40.06826324 64.67403854 39.53496399 65.49260834 38.98550415 66.33598328 C38.49093719 67.08128799 37.99637024 67.82659271 37.48681641 68.59448242 C37.05350006 69.25413498 36.62018372 69.91378754 36.17373657 70.59342957 C35.7864035 71.05759781 35.39907043 71.52176605 35 72 C34.34 72 33.68 72 33 72 C31.68545532 70.3699646 31.68545532 70.3699646 30.17431641 68.05615234 C29.60677643 67.19460541 29.03923645 66.33305847 28.45449829 65.44540405 C27.84302948 64.50178009 27.23156067 63.55815613 26.6015625 62.5859375 C25.97019379 61.62354156 25.33882507 60.66114563 24.68832397 59.66958618 C22.66065899 56.57562509 20.64271827 53.47545486 18.625 50.375 C17.27147536 48.30556952 15.91731663 46.23655362 14.5625 44.16796875 C11.52273016 39.52510357 8.48377236 34.88174824 5.46801758 30.22323608 C4.57579229 28.87200741 3.66220826 27.5341601 2.71166992 26.22329712 C0.3132238 22.91150776 -0.48683289 20.69039776 -0.390625 16.6015625 C-0.37773437 15.62832031 -0.36484375 14.65507812 -0.3515625 13.65234375 C-0.31804687 12.65332031 -0.28453125 11.65429688 -0.25 10.625 C-0.23195312 9.60277344 -0.21390625 8.58054687 -0.1953125 7.52734375 C-0.14839491 5.01725251 -0.08276729 2.50912236 0 0 Z " fill="#FBAB8B" transform="translate(145,277)"/>
<path d="M0 0 C3.18399097 1.58354989 6.20068265 3.27759939 9.21875 5.16015625 C9.78735748 5.51246307 10.35596497 5.8647699 10.94180298 6.22775269 C12.73830336 7.34268434 14.52932737 8.46607892 16.3203125 9.58984375 C17.54521959 10.35213055 18.77047686 11.11385495 19.99609375 11.875 C22.98324208 13.7317979 25.9655446 15.59621879 28.9453125 17.46484375 C26.53540445 25.23089759 23.37724812 32.57372003 20.0859375 40 C19.69664062 40.89074219 19.30734375 41.78148437 18.90625 42.69921875 C18.55353027 43.49553711 18.20081055 44.29185547 17.83740234 45.11230469 C16.91294573 47.55019847 16.38510737 49.89889953 15.9453125 52.46484375 C15.6153125 51.80484375 15.2853125 51.14484375 14.9453125 50.46484375 C3.7253125 50.46484375 -7.4946875 50.46484375 -19.0546875 50.46484375 C-20.9934375 46.13359375 -22.9321875 41.80234375 -24.9296875 37.33984375 C-25.53796387 35.98487793 -26.14624023 34.62991211 -26.77294922 33.23388672 C-27.25521973 32.15252441 -27.73749023 31.07116211 -28.234375 29.95703125 C-28.97276611 28.30743408 -28.97276611 28.30743408 -29.72607422 26.62451172 C-30.99483084 23.60719306 -32.06448901 20.58335268 -33.0546875 17.46484375 C-28.90807347 14.83827409 -24.74582781 12.23939064 -20.56689453 9.66455078 C-19.14822776 8.78521723 -17.73408643 7.89853804 -16.32470703 7.00439453 C-14.29569333 5.71892355 -12.25177043 4.46091134 -10.203125 3.20703125 C-9.57787933 2.80298065 -8.95263367 2.39893005 -8.30844116 1.9826355 C-5.2410713 0.14005183 -3.57379674 -0.62609994 0 0 Z " fill="#DC5353" transform="translate(181.0546875,350.53515625)"/>
<path d="M0 0 C5.1975 -0.1546875 5.1975 -0.1546875 10.5 -0.3125 C11.57572266 -0.35802002 12.65144531 -0.40354004 13.75976562 -0.45043945 C20.48970368 -0.54667012 24.80349535 0.65235972 30 5 C33.87271815 9.12257094 34.38423263 13.24814338 34.26953125 18.84765625 C33.69095706 23.46786461 31.86288012 27.29502986 28.41015625 30.45507812 C22.51072124 34.48989256 17.49035606 34.60830221 10.5 34.3125 C7.035 34.209375 3.57 34.10625 0 34 C0 22.78 0 11.56 0 0 Z " fill="#262E4D" transform="translate(418,367)"/>
</svg>
